<?xml version="1.0" encoding="UTF-8"?>
<svg version="1.1" viewBox="0 0 2048 897" width="1731" height="759"
    xmlns="http://www.w3.org/2000/svg">
    <path transform="translate(326,34)"
        d="m0 0h46l31 4 27 6 26 8 22 9 16 8 15 8 21 14 13 10 14 12 28 28 9 11 13 18 11 18 11 20 12 28 8 24 6 25 4 26 1 16v40l-2 25-5 26-7 26-9 26-13 30-16 31-14 24-14 23-11 17-23 35-29 44-14 20-8 12-12 17-14 19-22 28-18 22-13 15-12 14-13 14-7 8-14 14-8 4-12 2-9-2-9-5-13-13-7-8-12-13-9-11-10-11-9-11-14-17-13-17-15-20-10-14-14-20-16-23-12-18-29-43-10-16-14-22-17-28-14-25-15-29-12-27-10-28-6-21-5-26-4-37v-29l3-31 6-31 8-26 8-21 11-23 13-22 12-17 8-10 11-13 15-16 15-14 14-11 14-10 20-12 17-9 24-10 24-8 30-7zm4 91-22 3-20 5-18 6-18 8-19 11-14 10-13 11-10 9-9 9-9 11-11 15-9 15-11 23-7 21-5 21-3 25-1 15v15l3 26 6 26 7 20 10 22 10 17 10 14 9 11 23 23 14 11 15 10 27 14 18 7 22 6 25 4 16 1h12l24-2 25-5 20-6 19-8 19-10 16-11 10-8 10-9 16-16 11-14 14-21 8-16 8-19 7-21 4-20 2-21v-29l-2-21-4-20-6-20-9-21-11-21-10-15-10-13-24-24-11-9-12-9-21-12-23-10-21-7-25-5-22-2z"
        fill="#0F65B8" />
    <path transform="translate(786,292)"
        d="m0 0h54l6 2 6 9 15 29 10 19 42 82 12 23 4 6 4-4 14-27 10-19 18-35 12-23 18-35 13-24 3-3h59l8 1 1 8v284l-1 26-1 3-4 1-15 1h-24l-13-1-3-2-1-14-1-201-3 3-15 28-13 23-16 29-14 26-13 23-7 13-5 4h-22l-5-5-8-13-12-23-13-23-10-19-13-23-15-27-7-11v-2h-2v108l-1 103-4 3-12 1h-28l-14-1-3-4-1-31v-240l1-46 1-1z"
        fill="#0F65B8" />
    <path transform="translate(325,202)"
        d="m0 0h50l16 1 5 6 3 9 1 41v38l85 1 10 2 5 4 4 7 2 13v45l-1 14-2 7-7 7-2 1-9 1h-85v34l-1 47-3 9-5 5-9 2h-63l-7-2-5-6-1-4-1-15-1-70h-83l-8-2-8-6-5-8-1-10v-51l1-9 6-9 5-4 6-2 18-1 69-1 1-52 1-28 3-9 3-3z"
        fill="#E85254" />
    <path transform="translate(1858,379)"
        d="m0 0h22l16 4 16 7 12 7 11 9 3 3h2l1-22 2-2 7-1h48l1 20v238l-1 58-2 4h-52l-2-3-1-35-1-76-8 6-10 7-12 7-16 6-10 2-10 1h-17l-16-3-15-6-14-8-13-11-8-8-11-15-8-15-7-20-2-9-1-9v-30l2-15 5-17 7-16 9-14 12-14 8-7 13-9 14-7 16-5zm16 51-15 4-10 6-10 9-7 8-7 12-4 12-1 6v26l4 15 8 15 9 10 8 7 14 7 16 3 15-2 11-4 10-6 10-9 6-8 6-12 3-10 1-8v-20l-2-12-6-16-9-13-7-7-13-8-12-4-6-1z"
        fill="#0F65B8" />
    <path transform="translate(1571,291)"
        d="m0 0h47l4 1 1 17v284l-1 19-3 3-11 1h-21l-17-1-3-2-1-9v-16l-5 3-11 9-15 9-15 6-12 3h-32l-12-3-16-7-14-9-10-9-10-10-9-13-8-15-6-18-3-15-1-10v-18l2-17 4-17 6-15 7-13 9-12 7-8 11-9 14-9 13-6 17-5 6-1h22l19 5 13 6 12 7 14 12 3 2v-76l1-43zm-73 140-12 3-10 5-10 8-8 9-8 14-4 14v31l3 12 7 14 8 10 8 7 10 6 12 4 6 1h13l16-4 12-7 12-12 7-12 5-16 1-6v-20l-3-15-6-14-7-10-10-10-10-6-9-4-10-2z"
        fill="#0F65B8" />
    <path transform="translate(1233,377)"
        d="m0 0h24l20 4 16 6 11 6 14 10 15 15 9 13 8 16 6 18 3 18 1 12v13l-2 7-7 2-62 1h-101l3 11 8 16 9 11 11 8 16 7 4 1h20l14-3 11-5 9-6 11-10 3-1 36 14 10 5 3 4-1 5-9 10-14 11-14 9-12 6-20 6-19 3h-31l-18-3-18-6-14-7-14-10-11-10-9-11-9-14-7-16-4-13-3-19v-27l3-19 7-21 9-17 11-14 9-9 15-11 17-8 20-6zm4 48-11 2-10 4-11 8-8 9-8 16-1 9h112l-1-9-8-16-9-10-7-6-11-5-12-2z"
        fill="#0F65B8" />
    <path transform="translate(1673,385)" d="m0 0h54l1 1v219l-1 8-3 2-9 1h-26l-13-1-3-2-1-10v-207z"
        fill="#0F65B8" />
    <path transform="translate(1695,285)"
        d="m0 0h13l11 4 6 4 8 9 5 10 1 4v11l-3 12-6 9-8 7-11 5-4 1h-12l-12-4-10-9-6-9-2-5-1-6v-10l2-9 6-10 7-7 12-6z"
        fill="#0F65B8" />
</svg>